<?xml version="1.0" encoding="utf-8"?>
<!-- Generator: Adobe Illustrator 24.0.0, SVG Export Plug-In . SVG Version: 6.00 Build 0)  -->
<svg version="1.1" id="Layer_1" xmlns="http://www.w3.org/2000/svg" xmlns:xlink="http://www.w3.org/1999/xlink" x="0px" y="0px"
	 viewBox="0 0 711 319" style="enable-background:new 0 0 711 319;" xml:space="preserve">
<style type="text/css">
	.st0{fill:#78AB41;}
	.st1{fill:#FDBC16;}
</style>
<g>
	<g>
		<path class="st0" d="M160.78,195.17v-26.32H96.07v26.32c0,9.85,9.95,17.87,22.18,17.87h20.35
			C150.83,213.04,160.78,205.02,160.78,195.17z"/>
		<path class="st0" d="M151.9,117.73c-4.19,0-7.6,3.41-7.6,7.6v26.66h15.21v-26.66C159.5,121.14,156.09,117.73,151.9,117.73z"/>
		<path class="st0" d="M106.16,117.73c-4.19,0-7.61,3.41-7.61,7.6v26.66h15.21v-26.66C113.77,121.14,110.36,117.73,106.16,117.73z"
			/>
		<path class="st0" d="M252.47,124.84L136.59,7.93c-1.72-1.74-4.07-2.72-6.52-2.72c-2.45,0-4.8,0.98-6.52,2.72L7.66,124.84
			c-2.62,2.64-3.38,6.6-1.94,10.03c1.44,3.41,4.77,5.62,8.46,5.62h0.06l24.85-0.17v96.84v67.23v6.45c0,2.47,1.41,3.88,3.88,3.88
			h11.1c1.62,0,2.77-0.62,3.38-1.73v-8.6V235V131.06c0-2.45-0.98-4.79-2.71-6.51c-1.74-1.73-4.08-2.65-6.54-2.67l-11.85,0.08
			l93.71-94.53l93.71,94.53l-12.18-0.08h-0.06c-2.42,0-4.75,0.96-6.47,2.67c-1.74,1.72-2.71,4.07-2.71,6.51v164.13h-62.47v-58.98
			v-10.74c-0.62-1.14-1.8-1.77-3.46-1.77h-11.36c-2.53,0-3.97,1.44-3.97,3.97v75.4c0,0.88,0.19,1.62,0.52,2.22
			c0.46,4.64,4.33,8.27,9.09,8.27h80.84c5.07,0,9.18-4.11,9.18-9.18V140.31l25.18,0.17h0.06c3.69,0,7.03-2.21,8.46-5.62
			C255.86,131.43,255.09,127.47,252.47,124.84z"/>
	</g>
	<g>
		<circle class="st1" cx="395.93" cy="163.38" r="45.65"/>
		<path class="st0" d="M395.93,222.18c-25.21,0-45.65,20.44-45.65,45.65c0,25.21,20.44,45.65,45.65,45.65
			c25.21,0,45.65-20.44,45.65-45.65C441.58,242.61,421.14,222.18,395.93,222.18z M395.93,295.6c-15.34,0-27.77-12.43-27.77-27.77
			c0-15.34,12.43-27.77,27.77-27.77c15.34,0,27.77,12.43,27.77,27.77C423.7,283.16,411.27,295.6,395.93,295.6z"/>
		<path class="st0" d="M272.64,207.95h12.04c2.68,0,4.2-1.53,4.2-4.2v-22.17c0-1.72,0.96-2.1,2.49-1.72
			c3.25,0.96,6.5,1.72,11.47,1.72c20.64,0,34.41-14.91,34.41-31.92s-13.76-31.92-34.41-31.92c-20.65,0-34.41,14.91-34.41,31.92
			v54.09C268.43,206.42,269.96,207.95,272.64,207.95z M302.84,135.89c8.98,0,13.95,7.07,13.95,13.76c0,6.69-4.97,13.76-13.95,13.76
			c-8.99,0-13.95-7.07-13.95-13.76C288.89,142.96,293.86,135.89,302.84,135.89z"/>
		<path class="st0" d="M333.2,223.37h-12.07c-2.68,0-4.21,1.53-4.21,4.21v29.31c0,1.34-0.77,2.11-2.11,2.11h-23.76
			c-1.34,0-2.11-0.77-2.11-2.11v-29.31c0-2.68-1.53-4.21-4.21-4.21h-12.07c-2.68,0-4.22,1.53-4.22,4.21v80.09
			c0,2.68,1.53,4.21,4.22,4.21h12.07c2.68,0,4.21-1.53,4.21-4.21v-29.32c0-1.34,0.77-2.11,2.11-2.11h23.76
			c1.34,0,2.11,0.77,2.11,2.11v29.32c0,2.68,1.53,4.21,4.21,4.21h12.07c2.68,0,4.21-1.53,4.21-4.21v-80.09
			C337.41,224.91,335.88,223.37,333.2,223.37z"/>
		<path class="st0" d="M473.4,209.86c6.88,0,11.28-1.91,17.39-15.29l2.29-4.97c0.58-1.15,1.15-2.11,1.91-2.11
			c0.76,0,1.34,0.96,1.91,2.11l2.29,4.97c6.12,13.19,10.51,15.29,17.39,15.29c6.12,0,12.81-4.2,12.81-15.86v-70.15
			c0-2.68-1.53-4.2-4.2-4.2h-11.09c-2.68,0-4.2,1.53-4.2,4.2v46.64c0,2.1-1.53,2.29-2.68,0l-4.78-9.56
			c-1.91-3.82-3.63-7.26-7.45-7.26c-3.82,0-5.55,3.44-7.46,7.26l-4.78,9.56c-1.15,2.29-2.68,2.1-2.68,0v-46.64
			c0-2.68-1.53-4.2-4.2-4.2H464.8c-2.68,0-4.21,1.53-4.21,4.2v70.15C460.59,205.65,467.47,209.86,473.4,209.86z"/>
		<path class="st0" d="M584.83,209.86c17.01,0,27.71-9.75,31.35-19.11c0.57-1.34,1.15-4.2-1.15-5.73l-8.98-5.93
			c-2.1-1.34-4.4-1.15-5.73,0.96c-3.63,6.12-7.07,11.66-15.48,11.66c-8.99,0-13.95-7.07-13.95-13.76v-3.44c0-1.34,0.76-2.1,2.1-2.1
			h18.73c2.68,0,4.2-1.53,4.2-4.2v-8.79c0-2.68-1.53-4.2-4.2-4.2h-18.73c-1.34,0-2.1-0.76-2.1-2.1v-3.44
			c0-6.69,4.97-13.76,13.95-13.76c8.41,0,11.85,5.54,15.48,11.66c1.34,2.1,3.63,2.29,5.73,0.96l8.98-5.93
			c2.29-1.53,1.72-4.4,1.15-5.73c-3.63-9.37-14.34-19.12-31.35-19.12c-20.65,0-34.41,14.91-34.41,31.92v28.29
			C550.42,194.95,564.18,209.86,584.83,209.86z"/>
		<path class="st0" d="M698.35,165.71c-1.34-1.15-1.15-2.29,0-3.44c4.21-3.82,7.65-7.84,7.65-16.25c0-17.97-13.76-28.29-34.41-28.29
			c-20.65,0-34.41,14.91-34.41,31.92v54.09c0,2.68,1.53,4.2,4.21,4.2h12.04c2.68,0,4.2-1.53,4.2-4.2V174.5c0-1.34,0.76-2.1,2.1-2.1
			h11.85c8.98,0,13.95,7.07,13.95,13.76v17.59c0,2.68,1.53,4.2,4.2,4.2h12.04c2.68,0,4.2-1.53,4.2-4.2v-17.59
			C706,175.07,702.75,169.91,698.35,165.71z M671.59,155.19h-11.85c-1.34,0-2.1-0.76-2.1-2.1v-3.44c0-6.69,4.97-13.76,13.95-13.76
			c7.26,0,13.95,3.06,13.95,10.13C685.55,154.05,675.61,155.19,671.59,155.19z"/>
		<path class="st0" d="M525.78,223.37h-12.07c-2.68,0-4.21,1.53-4.21,4.21v54.22c0,6.7-4.98,13.8-13.99,13.8
			c-9.01,0-13.99-7.09-13.99-13.8v-54.22c0-2.68-1.53-4.21-4.21-4.21h-12.07c-2.68,0-4.22,1.53-4.22,4.21v54.22
			c0,17.05,13.8,32,34.49,32c20.69,0,34.49-14.94,34.49-32v-54.22C529.99,224.91,528.46,223.37,525.78,223.37z"/>
		<path class="st0" d="M584.21,256.52c0,0-12.64,0-12.64-8.62c0-3.07,3.07-8.43,12.46-8.43c3.83,0,8.62,1.73,12.84,5.75
			c1.72,1.53,4.02,1.92,5.94,0.58l8.24-5.94c2.11-1.53,2.11-4.03,0.57-5.75c-6.51-8.05-17.05-12.65-27.59-12.65
			c-21.84,0-32.38,13.8-32.38,26.44c0,15.14,11.5,25.48,32.19,26.63c0,0,14.18-0.38,14.18,9.58c0,5.56-4.02,11.5-13.99,11.5
			c-8.24,0-15.9-6.13-19.74-11.31c-1.34-1.92-3.45-2.49-5.56-1.15l-7.67,5.17c-2.11,1.53-2.49,3.83-1.15,5.94
			c5.75,9.2,17.24,19.54,34.11,19.54c21.84,0,34.49-13.03,34.49-29.7C618.51,265.53,602.6,257.29,584.21,256.52z"/>
		<path class="st0" d="M674.06,239.66c8.43,0,11.88,5.56,15.52,11.69c1.34,2.11,3.64,2.3,5.75,0.96l9.01-5.94
			c2.3-1.53,1.72-4.41,1.15-5.75c-3.64-9.39-14.37-19.16-31.42-19.16c-20.69,0-34.49,14.95-34.49,32v28.36c0,17.05,13.8,32,34.49,32
			c17.05,0,27.78-9.77,31.42-19.16c0.57-1.34,1.15-4.21-1.15-5.75l-9.01-5.94c-2.11-1.34-4.41-1.15-5.75,0.96
			c-3.64,6.13-7.09,11.69-15.52,11.69c-9.01,0-13.99-7.09-13.99-13.8v-3.45c0-1.34,0.77-2.11,2.11-2.11h18.78
			c2.68,0,4.21-1.53,4.21-4.21v-8.81c0-2.68-1.53-4.21-4.21-4.21h-18.78c-1.34,0-2.11-0.77-2.11-2.11v-3.45
			C660.08,246.75,665.06,239.66,674.06,239.66z"/>
	</g>
</g>
</svg>
