<svg width="18" height="16" viewBox="0 0 48 46" fill="none" xmlns="http://www.w3.org/2000/svg">
<path d="M22.0609 1.67367C22.5697 -0.339695 25.4303 -0.339699 25.9391 1.67366L28.3858 11.3564C28.6911 12.5648 30.0155 13.2026 31.1507 12.6879L40.2464 8.56375C42.1378 7.7062 43.9213 9.9427 42.6644 11.5958L36.6197 19.5457C35.8652 20.538 36.1923 21.9711 37.3026 22.5377L46.198 27.0776C48.0477 28.0217 47.4112 30.8105 45.3351 30.8585L35.3507 31.0893C34.1046 31.1181 33.1881 32.2673 33.4373 33.4886L35.4341 43.274C35.8493 45.3087 33.2719 46.5499 31.94 44.9567L25.5344 37.2944C24.735 36.3381 23.265 36.3381 22.4656 37.2944L16.06 44.9567C14.7281 46.5499 12.1507 45.3087 12.5659 43.274L14.5627 33.4886C14.8119 32.2673 13.8954 31.1181 12.6493 31.0893L2.66492 30.8585C0.588823 30.8105 -0.0477238 28.0217 1.80195 27.0776L10.6974 22.5377C11.8077 21.9711 12.1347 20.538 11.3803 19.5457L5.33559 11.5958C4.07868 9.9427 5.86223 7.70619 7.75355 8.56375L16.8493 12.6879C17.9845 13.2026 19.3089 12.5648 19.6142 11.3564L22.0609 1.67367Z" fill="#FFE552"/>
</svg>
